<?xml version="1.0" encoding="UTF-8" standalone="no"?>
<!DOCTYPE svg PUBLIC "-//W3C//DTD SVG 1.1//EN"
 "http://www.w3.org/Graphics/SVG/1.1/DTD/svg11.dtd">
<!-- Generated by graphviz version 11.0.0 (20240428.1522)
 -->
<!-- Title: G Pages: 1 -->
<svg width="1361pt" height="3283pt"
 viewBox="0.00 0.00 490.00 1182.00" xmlns="http://www.w3.org/2000/svg" xmlns:xlink="http://www.w3.org/1999/xlink">
<g id="graph0" class="graph" transform="scale(2.77778 2.77778) rotate(0) translate(4 1178)">
<title>G</title>
<polygon fill="white" stroke="none" points="-4,4 -4,-1178 486,-1178 486,4 -4,4"/>
<!-- 1684703477904 -->
<g id="node1" class="node">
<title>1684703477904</title>
<polygon fill="none" stroke="black" points="118.5,-1089.5 118.5,-1173.5 363.5,-1173.5 363.5,-1089.5 118.5,-1089.5"/>
<polygon fill="black" stroke="none" points="118.5,-1089.5 118.5,-1173.5 363.5,-1173.5 363.5,-1089.5 118.5,-1089.5"/>
<polygon fill="black" stroke="none" points="120.5,-1131.5 120.5,-1171.5 361.5,-1171.5 361.5,-1131.5 120.5,-1131.5"/>
<polygon fill="none" stroke="black" points="120.5,-1131.5 120.5,-1171.5 361.5,-1171.5 361.5,-1131.5 120.5,-1131.5"/>
<text text-anchor="start" x="149.88" y="-1146.3" font-family="Helvetica,sans-Serif" font-weight="bold" font-size="16.00" fill="white">input_image</text>
<text text-anchor="start" x="242.88" y="-1146.3" font-family="Helvetica,sans-Serif" font-size="16.00" fill="white"> (InputLayer)</text>
<polygon fill="white" stroke="none" points="120.5,-1091.5 120.5,-1129.5 359.5,-1129.5 359.5,-1091.5 120.5,-1091.5"/>
<polygon fill="none" stroke="black" points="120.5,-1091.5 120.5,-1129.5 359.5,-1129.5 359.5,-1091.5 120.5,-1091.5"/>
<text text-anchor="start" x="131.25" y="-1106.2" font-family="Helvetica,sans-Serif" font-size="14.00">Output shape: </text>
<text text-anchor="start" x="223.5" y="-1106.2" font-family="Helvetica,sans-Serif" font-weight="bold" font-size="14.00">(None, 256, 256, 3)</text>
</g>
<!-- 1676337559568 -->
<g id="node2" class="node">
<title>1676337559568</title>
<polygon fill="none" stroke="black" points="0,-968.5 0,-1052.5 482,-1052.5 482,-968.5 0,-968.5"/>
<polygon fill="black" stroke="none" points="0,-968.5 0,-1052.5 482,-1052.5 482,-968.5 0,-968.5"/>
<polygon fill="black" stroke="none" points="2,-1010.5 2,-1050.5 480,-1050.5 480,-1010.5 2,-1010.5"/>
<polygon fill="none" stroke="black" points="2,-1010.5 2,-1050.5 480,-1050.5 480,-1010.5 2,-1010.5"/>
<text text-anchor="start" x="144.25" y="-1025.3" font-family="Helvetica,sans-Serif" font-weight="bold" font-size="16.00" fill="white">sequential_30</text>
<text text-anchor="start" x="249.25" y="-1025.3" font-family="Helvetica,sans-Serif" font-size="16.00" fill="white"> (Sequential)</text>
<polygon fill="white" stroke="none" points="2,-970.5 2,-1008.5 231,-1008.5 231,-970.5 2,-970.5"/>
<polygon fill="none" stroke="black" points="2,-970.5 2,-1008.5 231,-1008.5 231,-970.5 2,-970.5"/>
<text text-anchor="start" x="13" y="-985.2" font-family="Helvetica,sans-Serif" font-size="14.00">Input shape: </text>
<text text-anchor="start" x="94.75" y="-985.2" font-family="Helvetica,sans-Serif" font-weight="bold" font-size="14.00">(None, 256, 256, 3)</text>
<polygon fill="white" stroke="none" points="233,-970.5 233,-1008.5 480,-1008.5 480,-970.5 233,-970.5"/>
<polygon fill="none" stroke="black" points="233,-970.5 233,-1008.5 480,-1008.5 480,-970.5 233,-970.5"/>
<text text-anchor="start" x="243.62" y="-985.2" font-family="Helvetica,sans-Serif" font-size="14.00">Output shape: </text>
<text text-anchor="start" x="335.88" y="-985.2" font-family="Helvetica,sans-Serif" font-weight="bold" font-size="14.00">(None, 128, 128, 32)</text>
</g>
<!-- 1684703477904&#45;&gt;1676337559568 -->
<g id="edge1" class="edge">
<title>1684703477904&#45;&gt;1676337559568</title>
<path fill="none" stroke="black" stroke-width="2" d="M241,-1089.18C241,-1089.18 241,-1065.62 241,-1065.62"/>
<polygon fill="black" stroke="black" stroke-width="2" points="244.5,-1065.62 241,-1055.62 237.5,-1065.62 244.5,-1065.62"/>
</g>
<!-- 1676336579664 -->
<g id="node3" class="node">
<title>1676336579664</title>
<polygon fill="none" stroke="black" points="4,-847.5 4,-931.5 478,-931.5 478,-847.5 4,-847.5"/>
<polygon fill="black" stroke="none" points="4,-847.5 4,-931.5 478,-931.5 478,-847.5 4,-847.5"/>
<polygon fill="black" stroke="none" points="6,-889.5 6,-929.5 476,-929.5 476,-889.5 6,-889.5"/>
<polygon fill="none" stroke="black" points="6,-889.5 6,-929.5 476,-929.5 476,-889.5 6,-889.5"/>
<text text-anchor="start" x="144.25" y="-904.3" font-family="Helvetica,sans-Serif" font-weight="bold" font-size="16.00" fill="white">sequential_31</text>
<text text-anchor="start" x="249.25" y="-904.3" font-family="Helvetica,sans-Serif" font-size="16.00" fill="white"> (Sequential)</text>
<polygon fill="white" stroke="none" points="6,-849.5 6,-887.5 243,-887.5 243,-849.5 6,-849.5"/>
<polygon fill="none" stroke="black" points="6,-849.5 6,-887.5 243,-887.5 243,-849.5 6,-849.5"/>
<text text-anchor="start" x="16.88" y="-864.2" font-family="Helvetica,sans-Serif" font-size="14.00">Input shape: </text>
<text text-anchor="start" x="98.62" y="-864.2" font-family="Helvetica,sans-Serif" font-weight="bold" font-size="14.00">(None, 128, 128, 32)</text>
<polygon fill="white" stroke="none" points="245,-849.5 245,-887.5 476,-887.5 476,-849.5 245,-849.5"/>
<polygon fill="none" stroke="black" points="245,-849.5 245,-887.5 476,-887.5 476,-849.5 245,-849.5"/>
<text text-anchor="start" x="255.88" y="-864.2" font-family="Helvetica,sans-Serif" font-size="14.00">Output shape: </text>
<text text-anchor="start" x="348.12" y="-864.2" font-family="Helvetica,sans-Serif" font-weight="bold" font-size="14.00">(None, 64, 64, 64)</text>
</g>
<!-- 1676337559568&#45;&gt;1676336579664 -->
<g id="edge2" class="edge">
<title>1676337559568&#45;&gt;1676336579664</title>
<path fill="none" stroke="black" stroke-width="2" d="M241,-968.18C241,-968.18 241,-944.62 241,-944.62"/>
<polygon fill="black" stroke="black" stroke-width="2" points="244.5,-944.62 241,-934.62 237.5,-944.62 244.5,-944.62"/>
</g>
<!-- 1676336521488 -->
<g id="node4" class="node">
<title>1676336521488</title>
<polygon fill="none" stroke="black" points="8.5,-726.5 8.5,-810.5 473.5,-810.5 473.5,-726.5 8.5,-726.5"/>
<polygon fill="black" stroke="none" points="8.5,-726.5 8.5,-810.5 473.5,-810.5 473.5,-726.5 8.5,-726.5"/>
<polygon fill="black" stroke="none" points="10.5,-768.5 10.5,-808.5 471.5,-808.5 471.5,-768.5 10.5,-768.5"/>
<polygon fill="none" stroke="black" points="10.5,-768.5 10.5,-808.5 471.5,-808.5 471.5,-768.5 10.5,-768.5"/>
<text text-anchor="start" x="144.25" y="-783.3" font-family="Helvetica,sans-Serif" font-weight="bold" font-size="16.00" fill="white">sequential_32</text>
<text text-anchor="start" x="249.25" y="-783.3" font-family="Helvetica,sans-Serif" font-size="16.00" fill="white"> (Sequential)</text>
<polygon fill="white" stroke="none" points="10.5,-728.5 10.5,-766.5 230.5,-766.5 230.5,-728.5 10.5,-728.5"/>
<polygon fill="none" stroke="black" points="10.5,-728.5 10.5,-766.5 230.5,-766.5 230.5,-728.5 10.5,-728.5"/>
<text text-anchor="start" x="21.12" y="-743.2" font-family="Helvetica,sans-Serif" font-size="14.00">Input shape: </text>
<text text-anchor="start" x="102.88" y="-743.2" font-family="Helvetica,sans-Serif" font-weight="bold" font-size="14.00">(None, 64, 64, 64)</text>
<polygon fill="white" stroke="none" points="232.5,-728.5 232.5,-766.5 471.5,-766.5 471.5,-728.5 232.5,-728.5"/>
<polygon fill="none" stroke="black" points="232.5,-728.5 232.5,-766.5 471.5,-766.5 471.5,-728.5 232.5,-728.5"/>
<text text-anchor="start" x="243.25" y="-743.2" font-family="Helvetica,sans-Serif" font-size="14.00">Output shape: </text>
<text text-anchor="start" x="335.5" y="-743.2" font-family="Helvetica,sans-Serif" font-weight="bold" font-size="14.00">(None, 32, 32, 128)</text>
</g>
<!-- 1676336579664&#45;&gt;1676336521488 -->
<g id="edge3" class="edge">
<title>1676336579664&#45;&gt;1676336521488</title>
<path fill="none" stroke="black" stroke-width="2" d="M241,-847.18C241,-847.18 241,-823.62 241,-823.62"/>
<polygon fill="black" stroke="black" stroke-width="2" points="244.5,-823.62 241,-813.62 237.5,-823.62 244.5,-823.62"/>
</g>
<!-- 1676338682064 -->
<g id="node5" class="node">
<title>1676338682064</title>
<polygon fill="none" stroke="black" points="4,-605.5 4,-689.5 478,-689.5 478,-605.5 4,-605.5"/>
<polygon fill="black" stroke="none" points="4,-605.5 4,-689.5 478,-689.5 478,-605.5 4,-605.5"/>
<polygon fill="black" stroke="none" points="6,-647.5 6,-687.5 476,-687.5 476,-647.5 6,-647.5"/>
<polygon fill="none" stroke="black" points="6,-647.5 6,-687.5 476,-687.5 476,-647.5 6,-647.5"/>
<text text-anchor="start" x="117.62" y="-662.3" font-family="Helvetica,sans-Serif" font-weight="bold" font-size="16.00" fill="white">zero_padding2d</text>
<text text-anchor="start" x="239.88" y="-662.3" font-family="Helvetica,sans-Serif" font-size="16.00" fill="white"> (ZeroPadding2D)</text>
<polygon fill="white" stroke="none" points="6,-607.5 6,-645.5 235,-645.5 235,-607.5 6,-607.5"/>
<polygon fill="none" stroke="black" points="6,-607.5 6,-645.5 235,-645.5 235,-607.5 6,-607.5"/>
<text text-anchor="start" x="17" y="-622.2" font-family="Helvetica,sans-Serif" font-size="14.00">Input shape: </text>
<text text-anchor="start" x="98.75" y="-622.2" font-family="Helvetica,sans-Serif" font-weight="bold" font-size="14.00">(None, 32, 32, 128)</text>
<polygon fill="white" stroke="none" points="237,-607.5 237,-645.5 476,-645.5 476,-607.5 237,-607.5"/>
<polygon fill="none" stroke="black" points="237,-607.5 237,-645.5 476,-645.5 476,-607.5 237,-607.5"/>
<text text-anchor="start" x="247.75" y="-622.2" font-family="Helvetica,sans-Serif" font-size="14.00">Output shape: </text>
<text text-anchor="start" x="340" y="-622.2" font-family="Helvetica,sans-Serif" font-weight="bold" font-size="14.00">(None, 34, 34, 128)</text>
</g>
<!-- 1676336521488&#45;&gt;1676338682064 -->
<g id="edge4" class="edge">
<title>1676336521488&#45;&gt;1676338682064</title>
<path fill="none" stroke="black" stroke-width="2" d="M241,-726.18C241,-726.18 241,-702.62 241,-702.62"/>
<polygon fill="black" stroke="black" stroke-width="2" points="244.5,-702.62 241,-692.62 237.5,-702.62 244.5,-702.62"/>
</g>
<!-- 1682689815056 -->
<g id="node6" class="node">
<title>1682689815056</title>
<polygon fill="none" stroke="black" points="4,-484.5 4,-568.5 478,-568.5 478,-484.5 4,-484.5"/>
<polygon fill="black" stroke="none" points="4,-484.5 4,-568.5 478,-568.5 478,-484.5 4,-484.5"/>
<polygon fill="black" stroke="none" points="6,-526.5 6,-566.5 476,-566.5 476,-526.5 6,-526.5"/>
<polygon fill="none" stroke="black" points="6,-526.5 6,-566.5 476,-566.5 476,-526.5 6,-526.5"/>
<text text-anchor="start" x="163" y="-541.3" font-family="Helvetica,sans-Serif" font-weight="bold" font-size="16.00" fill="white">conv2d_19</text>
<text text-anchor="start" x="247" y="-541.3" font-family="Helvetica,sans-Serif" font-size="16.00" fill="white"> (Conv2D)</text>
<polygon fill="white" stroke="none" points="6,-486.5 6,-524.5 235,-524.5 235,-486.5 6,-486.5"/>
<polygon fill="none" stroke="black" points="6,-486.5 6,-524.5 235,-524.5 235,-486.5 6,-486.5"/>
<text text-anchor="start" x="17" y="-501.2" font-family="Helvetica,sans-Serif" font-size="14.00">Input shape: </text>
<text text-anchor="start" x="98.75" y="-501.2" font-family="Helvetica,sans-Serif" font-weight="bold" font-size="14.00">(None, 34, 34, 128)</text>
<polygon fill="white" stroke="none" points="237,-486.5 237,-524.5 476,-524.5 476,-486.5 237,-486.5"/>
<polygon fill="none" stroke="black" points="237,-486.5 237,-524.5 476,-524.5 476,-486.5 237,-486.5"/>
<text text-anchor="start" x="247.75" y="-501.2" font-family="Helvetica,sans-Serif" font-size="14.00">Output shape: </text>
<text text-anchor="start" x="340" y="-501.2" font-family="Helvetica,sans-Serif" font-weight="bold" font-size="14.00">(None, 31, 31, 512)</text>
</g>
<!-- 1676338682064&#45;&gt;1682689815056 -->
<g id="edge5" class="edge">
<title>1676338682064&#45;&gt;1682689815056</title>
<path fill="none" stroke="black" stroke-width="2" d="M241,-605.18C241,-605.18 241,-581.62 241,-581.62"/>
<polygon fill="black" stroke="black" stroke-width="2" points="244.5,-581.62 241,-571.62 237.5,-581.62 244.5,-581.62"/>
</g>
<!-- 1676335848272 -->
<g id="node7" class="node">
<title>1676335848272</title>
<polygon fill="none" stroke="black" points="4,-363.5 4,-447.5 478,-447.5 478,-363.5 4,-363.5"/>
<polygon fill="black" stroke="none" points="4,-363.5 4,-447.5 478,-447.5 478,-363.5 4,-363.5"/>
<polygon fill="black" stroke="none" points="6,-405.5 6,-445.5 476,-445.5 476,-405.5 6,-405.5"/>
<polygon fill="none" stroke="black" points="6,-405.5 6,-445.5 476,-445.5 476,-405.5 6,-405.5"/>
<text text-anchor="start" x="55.38" y="-420.3" font-family="Helvetica,sans-Serif" font-weight="bold" font-size="16.00" fill="white">instance_normalization_30</text>
<text text-anchor="start" x="257.88" y="-420.3" font-family="Helvetica,sans-Serif" font-size="16.00" fill="white"> (InstanceNormalization)</text>
<polygon fill="white" stroke="none" points="6,-365.5 6,-403.5 235,-403.5 235,-365.5 6,-365.5"/>
<polygon fill="none" stroke="black" points="6,-365.5 6,-403.5 235,-403.5 235,-365.5 6,-365.5"/>
<text text-anchor="start" x="17" y="-380.2" font-family="Helvetica,sans-Serif" font-size="14.00">Input shape: </text>
<text text-anchor="start" x="98.75" y="-380.2" font-family="Helvetica,sans-Serif" font-weight="bold" font-size="14.00">(None, 31, 31, 512)</text>
<polygon fill="white" stroke="none" points="237,-365.5 237,-403.5 476,-403.5 476,-365.5 237,-365.5"/>
<polygon fill="none" stroke="black" points="237,-365.5 237,-403.5 476,-403.5 476,-365.5 237,-365.5"/>
<text text-anchor="start" x="247.75" y="-380.2" font-family="Helvetica,sans-Serif" font-size="14.00">Output shape: </text>
<text text-anchor="start" x="340" y="-380.2" font-family="Helvetica,sans-Serif" font-weight="bold" font-size="14.00">(None, 31, 31, 512)</text>
</g>
<!-- 1682689815056&#45;&gt;1676335848272 -->
<g id="edge6" class="edge">
<title>1682689815056&#45;&gt;1676335848272</title>
<path fill="none" stroke="black" stroke-width="2" d="M241,-484.18C241,-484.18 241,-460.62 241,-460.62"/>
<polygon fill="black" stroke="black" stroke-width="2" points="244.5,-460.62 241,-450.62 237.5,-460.62 244.5,-460.62"/>
</g>
<!-- 1676338357776 -->
<g id="node8" class="node">
<title>1676338357776</title>
<polygon fill="none" stroke="black" points="4,-242.5 4,-326.5 478,-326.5 478,-242.5 4,-242.5"/>
<polygon fill="black" stroke="none" points="4,-242.5 4,-326.5 478,-326.5 478,-242.5 4,-242.5"/>
<polygon fill="black" stroke="none" points="6,-284.5 6,-324.5 476,-324.5 476,-284.5 6,-284.5"/>
<polygon fill="none" stroke="black" points="6,-284.5 6,-324.5 476,-324.5 476,-284.5 6,-284.5"/>
<text text-anchor="start" x="136" y="-299.3" font-family="Helvetica,sans-Serif" font-weight="bold" font-size="16.00" fill="white">leaky_re_lu_19</text>
<text text-anchor="start" x="248.5" y="-299.3" font-family="Helvetica,sans-Serif" font-size="16.00" fill="white"> (LeakyReLU)</text>
<polygon fill="white" stroke="none" points="6,-244.5 6,-282.5 235,-282.5 235,-244.5 6,-244.5"/>
<polygon fill="none" stroke="black" points="6,-244.5 6,-282.5 235,-282.5 235,-244.5 6,-244.5"/>
<text text-anchor="start" x="17" y="-259.2" font-family="Helvetica,sans-Serif" font-size="14.00">Input shape: </text>
<text text-anchor="start" x="98.75" y="-259.2" font-family="Helvetica,sans-Serif" font-weight="bold" font-size="14.00">(None, 31, 31, 512)</text>
<polygon fill="white" stroke="none" points="237,-244.5 237,-282.5 476,-282.5 476,-244.5 237,-244.5"/>
<polygon fill="none" stroke="black" points="237,-244.5 237,-282.5 476,-282.5 476,-244.5 237,-244.5"/>
<text text-anchor="start" x="247.75" y="-259.2" font-family="Helvetica,sans-Serif" font-size="14.00">Output shape: </text>
<text text-anchor="start" x="340" y="-259.2" font-family="Helvetica,sans-Serif" font-weight="bold" font-size="14.00">(None, 31, 31, 512)</text>
</g>
<!-- 1676335848272&#45;&gt;1676338357776 -->
<g id="edge7" class="edge">
<title>1676335848272&#45;&gt;1676338357776</title>
<path fill="none" stroke="black" stroke-width="2" d="M241,-363.18C241,-363.18 241,-339.62 241,-339.62"/>
<polygon fill="black" stroke="black" stroke-width="2" points="244.5,-339.62 241,-329.62 237.5,-339.62 244.5,-339.62"/>
</g>
<!-- 1676335390416 -->
<g id="node9" class="node">
<title>1676335390416</title>
<polygon fill="none" stroke="black" points="4,-121.5 4,-205.5 478,-205.5 478,-121.5 4,-121.5"/>
<polygon fill="black" stroke="none" points="4,-121.5 4,-205.5 478,-205.5 478,-121.5 4,-121.5"/>
<polygon fill="black" stroke="none" points="6,-163.5 6,-203.5 476,-203.5 476,-163.5 6,-163.5"/>
<polygon fill="none" stroke="black" points="6,-163.5 6,-203.5 476,-203.5 476,-163.5 6,-163.5"/>
<text text-anchor="start" x="108.62" y="-178.3" font-family="Helvetica,sans-Serif" font-weight="bold" font-size="16.00" fill="white">zero_padding2d_1</text>
<text text-anchor="start" x="248.88" y="-178.3" font-family="Helvetica,sans-Serif" font-size="16.00" fill="white"> (ZeroPadding2D)</text>
<polygon fill="white" stroke="none" points="6,-123.5 6,-161.5 235,-161.5 235,-123.5 6,-123.5"/>
<polygon fill="none" stroke="black" points="6,-123.5 6,-161.5 235,-161.5 235,-123.5 6,-123.5"/>
<text text-anchor="start" x="17" y="-138.2" font-family="Helvetica,sans-Serif" font-size="14.00">Input shape: </text>
<text text-anchor="start" x="98.75" y="-138.2" font-family="Helvetica,sans-Serif" font-weight="bold" font-size="14.00">(None, 31, 31, 512)</text>
<polygon fill="white" stroke="none" points="237,-123.5 237,-161.5 476,-161.5 476,-123.5 237,-123.5"/>
<polygon fill="none" stroke="black" points="237,-123.5 237,-161.5 476,-161.5 476,-123.5 237,-123.5"/>
<text text-anchor="start" x="247.75" y="-138.2" font-family="Helvetica,sans-Serif" font-size="14.00">Output shape: </text>
<text text-anchor="start" x="340" y="-138.2" font-family="Helvetica,sans-Serif" font-weight="bold" font-size="14.00">(None, 33, 33, 512)</text>
</g>
<!-- 1676338357776&#45;&gt;1676335390416 -->
<g id="edge8" class="edge">
<title>1676338357776&#45;&gt;1676335390416</title>
<path fill="none" stroke="black" stroke-width="2" d="M241,-242.18C241,-242.18 241,-218.62 241,-218.62"/>
<polygon fill="black" stroke="black" stroke-width="2" points="244.5,-218.62 241,-208.62 237.5,-218.62 244.5,-218.62"/>
</g>
<!-- 1676337038224 -->
<g id="node10" class="node">
<title>1676337038224</title>
<polygon fill="none" stroke="black" points="12,-0.5 12,-84.5 470,-84.5 470,-0.5 12,-0.5"/>
<polygon fill="black" stroke="none" points="12,-0.5 12,-84.5 470,-84.5 470,-0.5 12,-0.5"/>
<polygon fill="black" stroke="none" points="14,-42.5 14,-82.5 468,-82.5 468,-42.5 14,-42.5"/>
<polygon fill="none" stroke="black" points="14,-42.5 14,-82.5 468,-82.5 468,-42.5 14,-42.5"/>
<text text-anchor="start" x="163" y="-57.3" font-family="Helvetica,sans-Serif" font-weight="bold" font-size="16.00" fill="white">conv2d_20</text>
<text text-anchor="start" x="247" y="-57.3" font-family="Helvetica,sans-Serif" font-size="16.00" fill="white"> (Conv2D)</text>
<polygon fill="white" stroke="none" points="14,-2.5 14,-40.5 243,-40.5 243,-2.5 14,-2.5"/>
<polygon fill="none" stroke="black" points="14,-2.5 14,-40.5 243,-40.5 243,-2.5 14,-2.5"/>
<text text-anchor="start" x="25" y="-17.2" font-family="Helvetica,sans-Serif" font-size="14.00">Input shape: </text>
<text text-anchor="start" x="106.75" y="-17.2" font-family="Helvetica,sans-Serif" font-weight="bold" font-size="14.00">(None, 33, 33, 512)</text>
<polygon fill="white" stroke="none" points="245,-2.5 245,-40.5 468,-40.5 468,-2.5 245,-2.5"/>
<polygon fill="none" stroke="black" points="245,-2.5 245,-40.5 468,-40.5 468,-2.5 245,-2.5"/>
<text text-anchor="start" x="256" y="-17.2" font-family="Helvetica,sans-Serif" font-size="14.00">Output shape: </text>
<text text-anchor="start" x="348.25" y="-17.2" font-family="Helvetica,sans-Serif" font-weight="bold" font-size="14.00">(None, 30, 30, 1)</text>
</g>
<!-- 1676335390416&#45;&gt;1676337038224 -->
<g id="edge9" class="edge">
<title>1676335390416&#45;&gt;1676337038224</title>
<path fill="none" stroke="black" stroke-width="2" d="M241,-121.18C241,-121.18 241,-97.62 241,-97.62"/>
<polygon fill="black" stroke="black" stroke-width="2" points="244.5,-97.62 241,-87.62 237.5,-97.62 244.5,-97.62"/>
</g>
</g>
</svg>
