<?xml version="1.0" encoding="UTF-8" standalone="no"?>
<!DOCTYPE svg PUBLIC "-//W3C//DTD SVG 1.1//EN"
 "http://www.w3.org/Graphics/SVG/1.1/DTD/svg11.dtd">
<!-- Generated by graphviz version 11.0.0 (20240428.1522)
 -->
<!-- Title: G Pages: 1 -->
<svg width="2071pt" height="4292pt"
 viewBox="0.00 0.00 745.50 1545.00" xmlns="http://www.w3.org/2000/svg" xmlns:xlink="http://www.w3.org/1999/xlink">
<g id="graph0" class="graph" transform="scale(2.77778 2.77778) rotate(0) translate(4 1541)">
<title>G</title>
<polygon fill="white" stroke="none" points="-4,4 -4,-1541 741.5,-1541 741.5,4 -4,4"/>
<!-- 1700284318416 -->
<g id="node1" class="node">
<title>1700284318416</title>
<polygon fill="none" stroke="black" points="114.5,-1452.5 114.5,-1536.5 359.5,-1536.5 359.5,-1452.5 114.5,-1452.5"/>
<polygon fill="black" stroke="none" points="114.5,-1452.5 114.5,-1536.5 359.5,-1536.5 359.5,-1452.5 114.5,-1452.5"/>
<polygon fill="black" stroke="none" points="116.5,-1494.5 116.5,-1534.5 357.5,-1534.5 357.5,-1494.5 116.5,-1494.5"/>
<polygon fill="none" stroke="black" points="116.5,-1494.5 116.5,-1534.5 357.5,-1534.5 357.5,-1494.5 116.5,-1494.5"/>
<text text-anchor="start" x="145.88" y="-1509.3" font-family="Helvetica,sans-Serif" font-weight="bold" font-size="16.00" fill="white">input_image</text>
<text text-anchor="start" x="238.88" y="-1509.3" font-family="Helvetica,sans-Serif" font-size="16.00" fill="white"> (InputLayer)</text>
<polygon fill="white" stroke="none" points="116.5,-1454.5 116.5,-1492.5 355.5,-1492.5 355.5,-1454.5 116.5,-1454.5"/>
<polygon fill="none" stroke="black" points="116.5,-1454.5 116.5,-1492.5 355.5,-1492.5 355.5,-1454.5 116.5,-1454.5"/>
<text text-anchor="start" x="127.25" y="-1469.2" font-family="Helvetica,sans-Serif" font-size="14.00">Output shape: </text>
<text text-anchor="start" x="219.5" y="-1469.2" font-family="Helvetica,sans-Serif" font-weight="bold" font-size="14.00">(None, 256, 256, 3)</text>
</g>
<!-- 1700284273488 -->
<g id="node2" class="node">
<title>1700284273488</title>
<polygon fill="none" stroke="black" points="0,-1331.5 0,-1415.5 474,-1415.5 474,-1331.5 0,-1331.5"/>
<polygon fill="black" stroke="none" points="0,-1331.5 0,-1415.5 474,-1415.5 474,-1331.5 0,-1331.5"/>
<polygon fill="black" stroke="none" points="2,-1373.5 2,-1413.5 472,-1413.5 472,-1373.5 2,-1373.5"/>
<polygon fill="none" stroke="black" points="2,-1373.5 2,-1413.5 472,-1413.5 472,-1373.5 2,-1373.5"/>
<text text-anchor="start" x="140.25" y="-1388.3" font-family="Helvetica,sans-Serif" font-weight="bold" font-size="16.00" fill="white">resize_layer</text>
<text text-anchor="start" x="230.25" y="-1388.3" font-family="Helvetica,sans-Serif" font-size="16.00" fill="white"> (ResizeLayer)</text>
<polygon fill="white" stroke="none" points="2,-1333.5 2,-1371.5 231,-1371.5 231,-1333.5 2,-1333.5"/>
<polygon fill="none" stroke="black" points="2,-1333.5 2,-1371.5 231,-1371.5 231,-1333.5 2,-1333.5"/>
<text text-anchor="start" x="13" y="-1348.2" font-family="Helvetica,sans-Serif" font-size="14.00">Input shape: </text>
<text text-anchor="start" x="94.75" y="-1348.2" font-family="Helvetica,sans-Serif" font-weight="bold" font-size="14.00">(None, 256, 256, 3)</text>
<polygon fill="white" stroke="none" points="233,-1333.5 233,-1371.5 472,-1371.5 472,-1333.5 233,-1333.5"/>
<polygon fill="none" stroke="black" points="233,-1333.5 233,-1371.5 472,-1371.5 472,-1333.5 233,-1333.5"/>
<text text-anchor="start" x="243.75" y="-1348.2" font-family="Helvetica,sans-Serif" font-size="14.00">Output shape: </text>
<text text-anchor="start" x="336" y="-1348.2" font-family="Helvetica,sans-Serif" font-weight="bold" font-size="14.00">(None, 512, 512, 3)</text>
</g>
<!-- 1700284318416&#45;&gt;1700284273488 -->
<g id="edge1" class="edge">
<title>1700284318416&#45;&gt;1700284273488</title>
<path fill="none" stroke="black" stroke-width="2" d="M237,-1452.18C237,-1452.18 237,-1428.62 237,-1428.62"/>
<polygon fill="black" stroke="black" stroke-width="2" points="240.5,-1428.62 237,-1418.62 233.5,-1428.62 240.5,-1428.62"/>
</g>
<!-- 1700228461520 -->
<g id="node4" class="node">
<title>1700228461520</title>
<polygon fill="none" stroke="black" points="118.5,-1210.5 118.5,-1294.5 733.5,-1294.5 733.5,-1210.5 118.5,-1210.5"/>
<polygon fill="black" stroke="none" points="118.5,-1210.5 118.5,-1294.5 733.5,-1294.5 733.5,-1210.5 118.5,-1210.5"/>
<polygon fill="black" stroke="none" points="120.5,-1252.5 120.5,-1292.5 731.5,-1292.5 731.5,-1252.5 120.5,-1252.5"/>
<polygon fill="none" stroke="black" points="120.5,-1252.5 120.5,-1292.5 731.5,-1292.5 731.5,-1252.5 120.5,-1252.5"/>
<text text-anchor="start" x="317.62" y="-1267.3" font-family="Helvetica,sans-Serif" font-weight="bold" font-size="16.00" fill="white">concatenate_7</text>
<text text-anchor="start" x="429.38" y="-1267.3" font-family="Helvetica,sans-Serif" font-size="16.00" fill="white"> (Concatenate)</text>
<polygon fill="white" stroke="none" points="120.5,-1212.5 120.5,-1250.5 490.5,-1250.5 490.5,-1212.5 120.5,-1212.5"/>
<polygon fill="none" stroke="black" points="120.5,-1212.5 120.5,-1250.5 490.5,-1250.5 490.5,-1212.5 120.5,-1212.5"/>
<text text-anchor="start" x="131.12" y="-1227.2" font-family="Helvetica,sans-Serif" font-size="14.00">Input shape: </text>
<text text-anchor="start" x="212.88" y="-1227.2" font-family="Helvetica,sans-Serif" font-weight="bold" font-size="14.00">[(None, 512, 512, 3), (None, 512, 512, 3)]</text>
<polygon fill="white" stroke="none" points="492.5,-1212.5 492.5,-1250.5 731.5,-1250.5 731.5,-1212.5 492.5,-1212.5"/>
<polygon fill="none" stroke="black" points="492.5,-1212.5 492.5,-1250.5 731.5,-1250.5 731.5,-1212.5 492.5,-1212.5"/>
<text text-anchor="start" x="503.25" y="-1227.2" font-family="Helvetica,sans-Serif" font-size="14.00">Output shape: </text>
<text text-anchor="start" x="595.5" y="-1227.2" font-family="Helvetica,sans-Serif" font-weight="bold" font-size="14.00">(None, 512, 512, 6)</text>
</g>
<!-- 1700284273488&#45;&gt;1700228461520 -->
<g id="edge2" class="edge">
<title>1700284273488&#45;&gt;1700228461520</title>
<path fill="none" stroke="black" stroke-width="2" d="M296.25,-1331.18C296.25,-1331.18 296.25,-1307.62 296.25,-1307.62"/>
<polygon fill="black" stroke="black" stroke-width="2" points="299.75,-1307.62 296.25,-1297.62 292.75,-1307.62 299.75,-1307.62"/>
</g>
<!-- 1700284272464 -->
<g id="node3" class="node">
<title>1700284272464</title>
<polygon fill="none" stroke="black" points="492.5,-1331.5 492.5,-1415.5 737.5,-1415.5 737.5,-1331.5 492.5,-1331.5"/>
<polygon fill="black" stroke="none" points="492.5,-1331.5 492.5,-1415.5 737.5,-1415.5 737.5,-1331.5 492.5,-1331.5"/>
<polygon fill="black" stroke="none" points="494.5,-1373.5 494.5,-1413.5 735.5,-1413.5 735.5,-1373.5 494.5,-1373.5"/>
<polygon fill="none" stroke="black" points="494.5,-1373.5 494.5,-1413.5 735.5,-1413.5 735.5,-1373.5 494.5,-1373.5"/>
<text text-anchor="start" x="520.88" y="-1388.3" font-family="Helvetica,sans-Serif" font-weight="bold" font-size="16.00" fill="white">target_image</text>
<text text-anchor="start" x="619.88" y="-1388.3" font-family="Helvetica,sans-Serif" font-size="16.00" fill="white"> (InputLayer)</text>
<polygon fill="white" stroke="none" points="494.5,-1333.5 494.5,-1371.5 733.5,-1371.5 733.5,-1333.5 494.5,-1333.5"/>
<polygon fill="none" stroke="black" points="494.5,-1333.5 494.5,-1371.5 733.5,-1371.5 733.5,-1333.5 494.5,-1333.5"/>
<text text-anchor="start" x="505.25" y="-1348.2" font-family="Helvetica,sans-Serif" font-size="14.00">Output shape: </text>
<text text-anchor="start" x="597.5" y="-1348.2" font-family="Helvetica,sans-Serif" font-weight="bold" font-size="14.00">(None, 512, 512, 3)</text>
</g>
<!-- 1700284272464&#45;&gt;1700228461520 -->
<g id="edge3" class="edge">
<title>1700284272464&#45;&gt;1700228461520</title>
<path fill="none" stroke="black" stroke-width="2" d="M613,-1331.18C613,-1331.18 613,-1307.62 613,-1307.62"/>
<polygon fill="black" stroke="black" stroke-width="2" points="616.5,-1307.62 613,-1297.62 609.5,-1307.62 616.5,-1307.62"/>
</g>
<!-- 1700284164816 -->
<g id="node5" class="node">
<title>1700284164816</title>
<polygon fill="none" stroke="black" points="185,-1089.5 185,-1173.5 667,-1173.5 667,-1089.5 185,-1089.5"/>
<polygon fill="black" stroke="none" points="185,-1089.5 185,-1173.5 667,-1173.5 667,-1089.5 185,-1089.5"/>
<polygon fill="black" stroke="none" points="187,-1131.5 187,-1171.5 665,-1171.5 665,-1131.5 187,-1131.5"/>
<polygon fill="none" stroke="black" points="187,-1131.5 187,-1171.5 665,-1171.5 665,-1131.5 187,-1131.5"/>
<text text-anchor="start" x="329.25" y="-1146.3" font-family="Helvetica,sans-Serif" font-weight="bold" font-size="16.00" fill="white">sequential_15</text>
<text text-anchor="start" x="434.25" y="-1146.3" font-family="Helvetica,sans-Serif" font-size="16.00" fill="white"> (Sequential)</text>
<polygon fill="white" stroke="none" points="187,-1091.5 187,-1129.5 416,-1129.5 416,-1091.5 187,-1091.5"/>
<polygon fill="none" stroke="black" points="187,-1091.5 187,-1129.5 416,-1129.5 416,-1091.5 187,-1091.5"/>
<text text-anchor="start" x="198" y="-1106.2" font-family="Helvetica,sans-Serif" font-size="14.00">Input shape: </text>
<text text-anchor="start" x="279.75" y="-1106.2" font-family="Helvetica,sans-Serif" font-weight="bold" font-size="14.00">(None, 512, 512, 6)</text>
<polygon fill="white" stroke="none" points="418,-1091.5 418,-1129.5 665,-1129.5 665,-1091.5 418,-1091.5"/>
<polygon fill="none" stroke="black" points="418,-1091.5 418,-1129.5 665,-1129.5 665,-1091.5 418,-1091.5"/>
<text text-anchor="start" x="428.62" y="-1106.2" font-family="Helvetica,sans-Serif" font-size="14.00">Output shape: </text>
<text text-anchor="start" x="520.88" y="-1106.2" font-family="Helvetica,sans-Serif" font-weight="bold" font-size="14.00">(None, 256, 256, 32)</text>
</g>
<!-- 1700228461520&#45;&gt;1700284164816 -->
<g id="edge4" class="edge">
<title>1700228461520&#45;&gt;1700284164816</title>
<path fill="none" stroke="black" stroke-width="2" d="M426,-1210.18C426,-1210.18 426,-1186.62 426,-1186.62"/>
<polygon fill="black" stroke="black" stroke-width="2" points="429.5,-1186.62 426,-1176.62 422.5,-1186.62 429.5,-1186.62"/>
</g>
<!-- 1700284273872 -->
<g id="node6" class="node">
<title>1700284273872</title>
<polygon fill="none" stroke="black" points="181,-968.5 181,-1052.5 671,-1052.5 671,-968.5 181,-968.5"/>
<polygon fill="black" stroke="none" points="181,-968.5 181,-1052.5 671,-1052.5 671,-968.5 181,-968.5"/>
<polygon fill="black" stroke="none" points="183,-1010.5 183,-1050.5 669,-1050.5 669,-1010.5 183,-1010.5"/>
<polygon fill="none" stroke="black" points="183,-1010.5 183,-1050.5 669,-1050.5 669,-1010.5 183,-1010.5"/>
<text text-anchor="start" x="329.25" y="-1025.3" font-family="Helvetica,sans-Serif" font-weight="bold" font-size="16.00" fill="white">sequential_16</text>
<text text-anchor="start" x="434.25" y="-1025.3" font-family="Helvetica,sans-Serif" font-size="16.00" fill="white"> (Sequential)</text>
<polygon fill="white" stroke="none" points="183,-970.5 183,-1008.5 420,-1008.5 420,-970.5 183,-970.5"/>
<polygon fill="none" stroke="black" points="183,-970.5 183,-1008.5 420,-1008.5 420,-970.5 183,-970.5"/>
<text text-anchor="start" x="193.88" y="-985.2" font-family="Helvetica,sans-Serif" font-size="14.00">Input shape: </text>
<text text-anchor="start" x="275.62" y="-985.2" font-family="Helvetica,sans-Serif" font-weight="bold" font-size="14.00">(None, 256, 256, 32)</text>
<polygon fill="white" stroke="none" points="422,-970.5 422,-1008.5 669,-1008.5 669,-970.5 422,-970.5"/>
<polygon fill="none" stroke="black" points="422,-970.5 422,-1008.5 669,-1008.5 669,-970.5 422,-970.5"/>
<text text-anchor="start" x="432.62" y="-985.2" font-family="Helvetica,sans-Serif" font-size="14.00">Output shape: </text>
<text text-anchor="start" x="524.88" y="-985.2" font-family="Helvetica,sans-Serif" font-weight="bold" font-size="14.00">(None, 128, 128, 64)</text>
</g>
<!-- 1700284164816&#45;&gt;1700284273872 -->
<g id="edge5" class="edge">
<title>1700284164816&#45;&gt;1700284273872</title>
<path fill="none" stroke="black" stroke-width="2" d="M426,-1089.18C426,-1089.18 426,-1065.62 426,-1065.62"/>
<polygon fill="black" stroke="black" stroke-width="2" points="429.5,-1065.62 426,-1055.62 422.5,-1065.62 429.5,-1065.62"/>
</g>
<!-- 1700283987856 -->
<g id="node7" class="node">
<title>1700283987856</title>
<polygon fill="none" stroke="black" points="185,-847.5 185,-931.5 667,-931.5 667,-847.5 185,-847.5"/>
<polygon fill="black" stroke="none" points="185,-847.5 185,-931.5 667,-931.5 667,-847.5 185,-847.5"/>
<polygon fill="black" stroke="none" points="187,-889.5 187,-929.5 665,-929.5 665,-889.5 187,-889.5"/>
<polygon fill="none" stroke="black" points="187,-889.5 187,-929.5 665,-929.5 665,-889.5 187,-889.5"/>
<text text-anchor="start" x="329.25" y="-904.3" font-family="Helvetica,sans-Serif" font-weight="bold" font-size="16.00" fill="white">sequential_17</text>
<text text-anchor="start" x="434.25" y="-904.3" font-family="Helvetica,sans-Serif" font-size="16.00" fill="white"> (Sequential)</text>
<polygon fill="white" stroke="none" points="187,-849.5 187,-887.5 424,-887.5 424,-849.5 187,-849.5"/>
<polygon fill="none" stroke="black" points="187,-849.5 187,-887.5 424,-887.5 424,-849.5 187,-849.5"/>
<text text-anchor="start" x="197.88" y="-864.2" font-family="Helvetica,sans-Serif" font-size="14.00">Input shape: </text>
<text text-anchor="start" x="279.62" y="-864.2" font-family="Helvetica,sans-Serif" font-weight="bold" font-size="14.00">(None, 128, 128, 64)</text>
<polygon fill="white" stroke="none" points="426,-849.5 426,-887.5 665,-887.5 665,-849.5 426,-849.5"/>
<polygon fill="none" stroke="black" points="426,-849.5 426,-887.5 665,-887.5 665,-849.5 426,-849.5"/>
<text text-anchor="start" x="436.75" y="-864.2" font-family="Helvetica,sans-Serif" font-size="14.00">Output shape: </text>
<text text-anchor="start" x="529" y="-864.2" font-family="Helvetica,sans-Serif" font-weight="bold" font-size="14.00">(None, 64, 64, 128)</text>
</g>
<!-- 1700284273872&#45;&gt;1700283987856 -->
<g id="edge6" class="edge">
<title>1700284273872&#45;&gt;1700283987856</title>
<path fill="none" stroke="black" stroke-width="2" d="M426,-968.18C426,-968.18 426,-944.62 426,-944.62"/>
<polygon fill="black" stroke="black" stroke-width="2" points="429.5,-944.62 426,-934.62 422.5,-944.62 429.5,-944.62"/>
</g>
<!-- 1700284823248 -->
<g id="node8" class="node">
<title>1700284823248</title>
<polygon fill="none" stroke="black" points="189,-726.5 189,-810.5 663,-810.5 663,-726.5 189,-726.5"/>
<polygon fill="black" stroke="none" points="189,-726.5 189,-810.5 663,-810.5 663,-726.5 189,-726.5"/>
<polygon fill="black" stroke="none" points="191,-768.5 191,-808.5 661,-808.5 661,-768.5 191,-768.5"/>
<polygon fill="none" stroke="black" points="191,-768.5 191,-808.5 661,-808.5 661,-768.5 191,-768.5"/>
<text text-anchor="start" x="329.25" y="-783.3" font-family="Helvetica,sans-Serif" font-weight="bold" font-size="16.00" fill="white">sequential_18</text>
<text text-anchor="start" x="434.25" y="-783.3" font-family="Helvetica,sans-Serif" font-size="16.00" fill="white"> (Sequential)</text>
<polygon fill="white" stroke="none" points="191,-728.5 191,-766.5 420,-766.5 420,-728.5 191,-728.5"/>
<polygon fill="none" stroke="black" points="191,-728.5 191,-766.5 420,-766.5 420,-728.5 191,-728.5"/>
<text text-anchor="start" x="202" y="-743.2" font-family="Helvetica,sans-Serif" font-size="14.00">Input shape: </text>
<text text-anchor="start" x="283.75" y="-743.2" font-family="Helvetica,sans-Serif" font-weight="bold" font-size="14.00">(None, 64, 64, 128)</text>
<polygon fill="white" stroke="none" points="422,-728.5 422,-766.5 661,-766.5 661,-728.5 422,-728.5"/>
<polygon fill="none" stroke="black" points="422,-728.5 422,-766.5 661,-766.5 661,-728.5 422,-728.5"/>
<text text-anchor="start" x="432.75" y="-743.2" font-family="Helvetica,sans-Serif" font-size="14.00">Output shape: </text>
<text text-anchor="start" x="525" y="-743.2" font-family="Helvetica,sans-Serif" font-weight="bold" font-size="14.00">(None, 32, 32, 256)</text>
</g>
<!-- 1700283987856&#45;&gt;1700284823248 -->
<g id="edge7" class="edge">
<title>1700283987856&#45;&gt;1700284823248</title>
<path fill="none" stroke="black" stroke-width="2" d="M426,-847.18C426,-847.18 426,-823.62 426,-823.62"/>
<polygon fill="black" stroke="black" stroke-width="2" points="429.5,-823.62 426,-813.62 422.5,-823.62 429.5,-823.62"/>
</g>
<!-- 1700285086288 -->
<g id="node9" class="node">
<title>1700285086288</title>
<polygon fill="none" stroke="black" points="189,-605.5 189,-689.5 663,-689.5 663,-605.5 189,-605.5"/>
<polygon fill="black" stroke="none" points="189,-605.5 189,-689.5 663,-689.5 663,-605.5 189,-605.5"/>
<polygon fill="black" stroke="none" points="191,-647.5 191,-687.5 661,-687.5 661,-647.5 191,-647.5"/>
<polygon fill="none" stroke="black" points="191,-647.5 191,-687.5 661,-687.5 661,-647.5 191,-647.5"/>
<text text-anchor="start" x="302.62" y="-662.3" font-family="Helvetica,sans-Serif" font-weight="bold" font-size="16.00" fill="white">zero_padding2d</text>
<text text-anchor="start" x="424.88" y="-662.3" font-family="Helvetica,sans-Serif" font-size="16.00" fill="white"> (ZeroPadding2D)</text>
<polygon fill="white" stroke="none" points="191,-607.5 191,-645.5 420,-645.5 420,-607.5 191,-607.5"/>
<polygon fill="none" stroke="black" points="191,-607.5 191,-645.5 420,-645.5 420,-607.5 191,-607.5"/>
<text text-anchor="start" x="202" y="-622.2" font-family="Helvetica,sans-Serif" font-size="14.00">Input shape: </text>
<text text-anchor="start" x="283.75" y="-622.2" font-family="Helvetica,sans-Serif" font-weight="bold" font-size="14.00">(None, 32, 32, 256)</text>
<polygon fill="white" stroke="none" points="422,-607.5 422,-645.5 661,-645.5 661,-607.5 422,-607.5"/>
<polygon fill="none" stroke="black" points="422,-607.5 422,-645.5 661,-645.5 661,-607.5 422,-607.5"/>
<text text-anchor="start" x="432.75" y="-622.2" font-family="Helvetica,sans-Serif" font-size="14.00">Output shape: </text>
<text text-anchor="start" x="525" y="-622.2" font-family="Helvetica,sans-Serif" font-weight="bold" font-size="14.00">(None, 34, 34, 256)</text>
</g>
<!-- 1700284823248&#45;&gt;1700285086288 -->
<g id="edge8" class="edge">
<title>1700284823248&#45;&gt;1700285086288</title>
<path fill="none" stroke="black" stroke-width="2" d="M426,-726.18C426,-726.18 426,-702.62 426,-702.62"/>
<polygon fill="black" stroke="black" stroke-width="2" points="429.5,-702.62 426,-692.62 422.5,-702.62 429.5,-702.62"/>
</g>
<!-- 1700284354128 -->
<g id="node10" class="node">
<title>1700284354128</title>
<polygon fill="none" stroke="black" points="189,-484.5 189,-568.5 663,-568.5 663,-484.5 189,-484.5"/>
<polygon fill="black" stroke="none" points="189,-484.5 189,-568.5 663,-568.5 663,-484.5 189,-484.5"/>
<polygon fill="black" stroke="none" points="191,-526.5 191,-566.5 661,-566.5 661,-526.5 191,-526.5"/>
<polygon fill="none" stroke="black" points="191,-526.5 191,-566.5 661,-566.5 661,-526.5 191,-526.5"/>
<text text-anchor="start" x="348" y="-541.3" font-family="Helvetica,sans-Serif" font-weight="bold" font-size="16.00" fill="white">conv2d_12</text>
<text text-anchor="start" x="432" y="-541.3" font-family="Helvetica,sans-Serif" font-size="16.00" fill="white"> (Conv2D)</text>
<polygon fill="white" stroke="none" points="191,-486.5 191,-524.5 420,-524.5 420,-486.5 191,-486.5"/>
<polygon fill="none" stroke="black" points="191,-486.5 191,-524.5 420,-524.5 420,-486.5 191,-486.5"/>
<text text-anchor="start" x="202" y="-501.2" font-family="Helvetica,sans-Serif" font-size="14.00">Input shape: </text>
<text text-anchor="start" x="283.75" y="-501.2" font-family="Helvetica,sans-Serif" font-weight="bold" font-size="14.00">(None, 34, 34, 256)</text>
<polygon fill="white" stroke="none" points="422,-486.5 422,-524.5 661,-524.5 661,-486.5 422,-486.5"/>
<polygon fill="none" stroke="black" points="422,-486.5 422,-524.5 661,-524.5 661,-486.5 422,-486.5"/>
<text text-anchor="start" x="432.75" y="-501.2" font-family="Helvetica,sans-Serif" font-size="14.00">Output shape: </text>
<text text-anchor="start" x="525" y="-501.2" font-family="Helvetica,sans-Serif" font-weight="bold" font-size="14.00">(None, 31, 31, 512)</text>
</g>
<!-- 1700285086288&#45;&gt;1700284354128 -->
<g id="edge9" class="edge">
<title>1700285086288&#45;&gt;1700284354128</title>
<path fill="none" stroke="black" stroke-width="2" d="M426,-605.18C426,-605.18 426,-581.62 426,-581.62"/>
<polygon fill="black" stroke="black" stroke-width="2" points="429.5,-581.62 426,-571.62 422.5,-581.62 429.5,-581.62"/>
</g>
<!-- 1700285008592 -->
<g id="node11" class="node">
<title>1700285008592</title>
<polygon fill="none" stroke="black" points="189,-363.5 189,-447.5 663,-447.5 663,-363.5 189,-363.5"/>
<polygon fill="black" stroke="none" points="189,-363.5 189,-447.5 663,-447.5 663,-363.5 189,-363.5"/>
<polygon fill="black" stroke="none" points="191,-405.5 191,-445.5 661,-445.5 661,-405.5 191,-405.5"/>
<polygon fill="none" stroke="black" points="191,-405.5 191,-445.5 661,-445.5 661,-405.5 191,-405.5"/>
<text text-anchor="start" x="274.5" y="-420.3" font-family="Helvetica,sans-Serif" font-weight="bold" font-size="16.00" fill="white">batch_normalization</text>
<text text-anchor="start" x="428.25" y="-420.3" font-family="Helvetica,sans-Serif" font-size="16.00" fill="white"> (BatchNormalization)</text>
<polygon fill="white" stroke="none" points="191,-365.5 191,-403.5 420,-403.5 420,-365.5 191,-365.5"/>
<polygon fill="none" stroke="black" points="191,-365.5 191,-403.5 420,-403.5 420,-365.5 191,-365.5"/>
<text text-anchor="start" x="202" y="-380.2" font-family="Helvetica,sans-Serif" font-size="14.00">Input shape: </text>
<text text-anchor="start" x="283.75" y="-380.2" font-family="Helvetica,sans-Serif" font-weight="bold" font-size="14.00">(None, 31, 31, 512)</text>
<polygon fill="white" stroke="none" points="422,-365.5 422,-403.5 661,-403.5 661,-365.5 422,-365.5"/>
<polygon fill="none" stroke="black" points="422,-365.5 422,-403.5 661,-403.5 661,-365.5 422,-365.5"/>
<text text-anchor="start" x="432.75" y="-380.2" font-family="Helvetica,sans-Serif" font-size="14.00">Output shape: </text>
<text text-anchor="start" x="525" y="-380.2" font-family="Helvetica,sans-Serif" font-weight="bold" font-size="14.00">(None, 31, 31, 512)</text>
</g>
<!-- 1700284354128&#45;&gt;1700285008592 -->
<g id="edge10" class="edge">
<title>1700284354128&#45;&gt;1700285008592</title>
<path fill="none" stroke="black" stroke-width="2" d="M426,-484.18C426,-484.18 426,-460.62 426,-460.62"/>
<polygon fill="black" stroke="black" stroke-width="2" points="429.5,-460.62 426,-450.62 422.5,-460.62 429.5,-460.62"/>
</g>
<!-- 1700226291344 -->
<g id="node12" class="node">
<title>1700226291344</title>
<polygon fill="none" stroke="black" points="189,-242.5 189,-326.5 663,-326.5 663,-242.5 189,-242.5"/>
<polygon fill="black" stroke="none" points="189,-242.5 189,-326.5 663,-326.5 663,-242.5 189,-242.5"/>
<polygon fill="black" stroke="none" points="191,-284.5 191,-324.5 661,-324.5 661,-284.5 191,-284.5"/>
<polygon fill="none" stroke="black" points="191,-284.5 191,-324.5 661,-324.5 661,-284.5 191,-284.5"/>
<text text-anchor="start" x="321" y="-299.3" font-family="Helvetica,sans-Serif" font-weight="bold" font-size="16.00" fill="white">leaky_re_lu_12</text>
<text text-anchor="start" x="433.5" y="-299.3" font-family="Helvetica,sans-Serif" font-size="16.00" fill="white"> (LeakyReLU)</text>
<polygon fill="white" stroke="none" points="191,-244.5 191,-282.5 420,-282.5 420,-244.5 191,-244.5"/>
<polygon fill="none" stroke="black" points="191,-244.5 191,-282.5 420,-282.5 420,-244.5 191,-244.5"/>
<text text-anchor="start" x="202" y="-259.2" font-family="Helvetica,sans-Serif" font-size="14.00">Input shape: </text>
<text text-anchor="start" x="283.75" y="-259.2" font-family="Helvetica,sans-Serif" font-weight="bold" font-size="14.00">(None, 31, 31, 512)</text>
<polygon fill="white" stroke="none" points="422,-244.5 422,-282.5 661,-282.5 661,-244.5 422,-244.5"/>
<polygon fill="none" stroke="black" points="422,-244.5 422,-282.5 661,-282.5 661,-244.5 422,-244.5"/>
<text text-anchor="start" x="432.75" y="-259.2" font-family="Helvetica,sans-Serif" font-size="14.00">Output shape: </text>
<text text-anchor="start" x="525" y="-259.2" font-family="Helvetica,sans-Serif" font-weight="bold" font-size="14.00">(None, 31, 31, 512)</text>
</g>
<!-- 1700285008592&#45;&gt;1700226291344 -->
<g id="edge11" class="edge">
<title>1700285008592&#45;&gt;1700226291344</title>
<path fill="none" stroke="black" stroke-width="2" d="M426,-363.18C426,-363.18 426,-339.62 426,-339.62"/>
<polygon fill="black" stroke="black" stroke-width="2" points="429.5,-339.62 426,-329.62 422.5,-339.62 429.5,-339.62"/>
</g>
<!-- 1700283814288 -->
<g id="node13" class="node">
<title>1700283814288</title>
<polygon fill="none" stroke="black" points="189,-121.5 189,-205.5 663,-205.5 663,-121.5 189,-121.5"/>
<polygon fill="black" stroke="none" points="189,-121.5 189,-205.5 663,-205.5 663,-121.5 189,-121.5"/>
<polygon fill="black" stroke="none" points="191,-163.5 191,-203.5 661,-203.5 661,-163.5 191,-163.5"/>
<polygon fill="none" stroke="black" points="191,-163.5 191,-203.5 661,-203.5 661,-163.5 191,-163.5"/>
<text text-anchor="start" x="293.62" y="-178.3" font-family="Helvetica,sans-Serif" font-weight="bold" font-size="16.00" fill="white">zero_padding2d_1</text>
<text text-anchor="start" x="433.88" y="-178.3" font-family="Helvetica,sans-Serif" font-size="16.00" fill="white"> (ZeroPadding2D)</text>
<polygon fill="white" stroke="none" points="191,-123.5 191,-161.5 420,-161.5 420,-123.5 191,-123.5"/>
<polygon fill="none" stroke="black" points="191,-123.5 191,-161.5 420,-161.5 420,-123.5 191,-123.5"/>
<text text-anchor="start" x="202" y="-138.2" font-family="Helvetica,sans-Serif" font-size="14.00">Input shape: </text>
<text text-anchor="start" x="283.75" y="-138.2" font-family="Helvetica,sans-Serif" font-weight="bold" font-size="14.00">(None, 31, 31, 512)</text>
<polygon fill="white" stroke="none" points="422,-123.5 422,-161.5 661,-161.5 661,-123.5 422,-123.5"/>
<polygon fill="none" stroke="black" points="422,-123.5 422,-161.5 661,-161.5 661,-123.5 422,-123.5"/>
<text text-anchor="start" x="432.75" y="-138.2" font-family="Helvetica,sans-Serif" font-size="14.00">Output shape: </text>
<text text-anchor="start" x="525" y="-138.2" font-family="Helvetica,sans-Serif" font-weight="bold" font-size="14.00">(None, 33, 33, 512)</text>
</g>
<!-- 1700226291344&#45;&gt;1700283814288 -->
<g id="edge12" class="edge">
<title>1700226291344&#45;&gt;1700283814288</title>
<path fill="none" stroke="black" stroke-width="2" d="M426,-242.18C426,-242.18 426,-218.62 426,-218.62"/>
<polygon fill="black" stroke="black" stroke-width="2" points="429.5,-218.62 426,-208.62 422.5,-218.62 429.5,-218.62"/>
</g>
<!-- 1700230029392 -->
<g id="node14" class="node">
<title>1700230029392</title>
<polygon fill="none" stroke="black" points="197,-0.5 197,-84.5 655,-84.5 655,-0.5 197,-0.5"/>
<polygon fill="black" stroke="none" points="197,-0.5 197,-84.5 655,-84.5 655,-0.5 197,-0.5"/>
<polygon fill="black" stroke="none" points="199,-42.5 199,-82.5 653,-82.5 653,-42.5 199,-42.5"/>
<polygon fill="none" stroke="black" points="199,-42.5 199,-82.5 653,-82.5 653,-42.5 199,-42.5"/>
<text text-anchor="start" x="348" y="-57.3" font-family="Helvetica,sans-Serif" font-weight="bold" font-size="16.00" fill="white">conv2d_13</text>
<text text-anchor="start" x="432" y="-57.3" font-family="Helvetica,sans-Serif" font-size="16.00" fill="white"> (Conv2D)</text>
<polygon fill="white" stroke="none" points="199,-2.5 199,-40.5 428,-40.5 428,-2.5 199,-2.5"/>
<polygon fill="none" stroke="black" points="199,-2.5 199,-40.5 428,-40.5 428,-2.5 199,-2.5"/>
<text text-anchor="start" x="210" y="-17.2" font-family="Helvetica,sans-Serif" font-size="14.00">Input shape: </text>
<text text-anchor="start" x="291.75" y="-17.2" font-family="Helvetica,sans-Serif" font-weight="bold" font-size="14.00">(None, 33, 33, 512)</text>
<polygon fill="white" stroke="none" points="430,-2.5 430,-40.5 653,-40.5 653,-2.5 430,-2.5"/>
<polygon fill="none" stroke="black" points="430,-2.5 430,-40.5 653,-40.5 653,-2.5 430,-2.5"/>
<text text-anchor="start" x="441" y="-17.2" font-family="Helvetica,sans-Serif" font-size="14.00">Output shape: </text>
<text text-anchor="start" x="533.25" y="-17.2" font-family="Helvetica,sans-Serif" font-weight="bold" font-size="14.00">(None, 30, 30, 1)</text>
</g>
<!-- 1700283814288&#45;&gt;1700230029392 -->
<g id="edge13" class="edge">
<title>1700283814288&#45;&gt;1700230029392</title>
<path fill="none" stroke="black" stroke-width="2" d="M426,-121.18C426,-121.18 426,-97.62 426,-97.62"/>
<polygon fill="black" stroke="black" stroke-width="2" points="429.5,-97.62 426,-87.62 422.5,-97.62 429.5,-97.62"/>
</g>
</g>
</svg>
